<svg xmlns="http://www.w3.org/2000/svg" viewBox="0 0 20.3 25.1"><path d="M10.2 14.7c4.1 0 7.3-3.3 7.3-7.3S14.2 0 10.2 0 2.8 3.3 2.8 7.3s3.3 7.4 7.4 7.4zm0-13.3c3.3 0 5.9 2.6 5.9 5.9s-2.6 5.9-5.9 5.9-5.9-2.6-5.9-5.9 2.6-5.9 5.9-5.9z"/><path d="M20.3 18.5c-.5-1.7-2.1-2.9-3.3-3.8-.3-.2-.6-.4-.9-.7-.3-.2-.7-.2-1 .1-1.3 1.3-3.1 2-5 1.9-1.9.1-3.7-.6-5-1.9-.3-.3-.7-.3-1-.1-.2.2-.5.4-.7.6l-.1.1c-1.2.9-2.8 2-3.3 3.8v5.9c0 .4.3.7.7.7h18.9c.4 0 .7-.3.7-.7v-5.9zm-18.9.3c.4-1.2 1.7-2.1 2.7-2.9l.4-.3c1.6 1.3 3.5 2 5.6 1.9 2.1.1 4-.6 5.6-1.9l.4.3c1.1.8 2.3 1.8 2.7 2.9v4.8H1.4v-4.8z"/></svg>