<svg xmlns="http://www.w3.org/2000/svg" width="16.285" height="16.285"><g data-name="グループ 54"><path data-name="パス 27" d="M8.143 1.467c2.174 0 2.432.008 3.29.047a4.505 4.505 0 011.512.28 2.523 2.523 0 01.936.609 2.523 2.523 0 01.609.936 4.505 4.505 0 01.28 1.512c.039.859.047 1.116.047 3.29s-.008 2.432-.047 3.29a4.506 4.506 0 01-.28 1.512 2.7 2.7 0 01-1.545 1.545 4.505 4.505 0 01-1.512.28c-.858.039-1.116.047-3.29.047s-2.432-.008-3.29-.047a4.505 4.505 0 01-1.512-.28 2.524 2.524 0 01-.936-.609 2.523 2.523 0 01-.609-.936 4.506 4.506 0 01-.28-1.512c-.039-.859-.047-1.116-.047-3.29s.008-2.432.047-3.29a4.506 4.506 0 01.28-1.512 2.523 2.523 0 01.605-.939 2.524 2.524 0 01.936-.609 4.505 4.505 0 011.512-.28c.859-.039 1.116-.047 3.29-.047M8.143 0C5.931 0 5.654.009 4.786.049a5.977 5.977 0 00-1.977.378 3.991 3.991 0 00-1.442.939 3.991 3.991 0 00-.94 1.443 5.977 5.977 0 00-.378 1.976c-.04.869-.048 1.146-.048 3.358s.008 2.488.048 3.357a5.977 5.977 0 00.378 1.977 3.991 3.991 0 00.939 1.442 3.991 3.991 0 001.442.939 5.977 5.977 0 001.977.378c.868.04 1.146.049 3.357.049s2.489-.009 3.357-.049a5.977 5.977 0 001.977-.378 4.164 4.164 0 002.381-2.381 5.977 5.977 0 00.378-1.977c.04-.869.049-1.146.049-3.357s-.009-2.489-.049-3.357a5.977 5.977 0 00-.378-1.977 3.992 3.992 0 00-.939-1.442 3.992 3.992 0 00-1.442-.94 5.977 5.977 0 00-1.975-.378C10.631.009 10.354 0 8.143 0"/><path data-name="パス 28" d="M8.142 3.961a4.181 4.181 0 104.181 4.181 4.181 4.181 0 00-4.181-4.181m0 6.9a2.714 2.714 0 112.714-2.714 2.714 2.714 0 01-2.714 2.714"/><path data-name="パス 29" d="M13.466 3.796a.977.977 0 11-.977-.977.977.977 0 01.977.977"/></g></svg>